<svg width="700.9350341796875px" height="82.43257904052734px" xmlns="http://www.w3.org/2000/svg" viewBox="-100.46751708984374 33.78371047973633 700.9350341796875 82.43257904052734" style="background: rgba(0, 0, 0, 0);" preserveAspectRatio="xMidYMid"><defs><linearGradient id="editing-sticker-gradient" x1="0.5877115114168211" y1="0.7868914267889107" x2="0.4122884885831789" y2="0.2131085732110894"><stop offset="0" stop-color="#3c5ebd"></stop><stop offset="1" stop-color="#ffc453"></stop></linearGradient><filter id="editing-sticker" x="-100%" y="-100%" width="300%" height="300%"><feMorphology operator="erode" radius="1" in="SourceAlpha" result="alpha-erode"></feMorphology><feConvolveMatrix order="3,3" divisor="1" kernelMatrix="0 1 0 1 1 1 0 1 0" in="alpha-erode" result="alpha-round"></feConvolveMatrix><feMorphology operator="dilate" radius="3.5" in="alpha-round" result="dilate-shadow"></feMorphology><feGaussianBlur in="dilate-shadow" stdDeviation="1.5" result="shadow"></feGaussianBlur><feFlood flood-color="#fff" result="flood-sticker"></feFlood><feComposite operator="in" in="flood-sticker" in2="alpha-round" result="comp-sticker"></feComposite><feMorphology operator="dilate" radius="3" in="comp-sticker" result="morph-sticker"></feMorphology><feConvolveMatrix order="3,3" divisor="1" kernelMatrix="0 1 0 1 1 1 0 1 0" in="morph-sticker" result="sticker"></feConvolveMatrix><feMerge><feMergeNode in="shadow"></feMergeNode><feMergeNode in="sticker"></feMergeNode><feMergeNode in="SourceGraphic"></feMergeNode></feMerge></filter></defs><g filter="url(#editing-sticker)"><g transform="translate(-1.1906158924102783, 92.65687561035156)"><path d="M20.52-8.14L20.52-8.14L13.50-8.14L13.50 0L2.70 0L2.70-33.75L19.71-33.75L19.71-33.75Q31.32-33.75 31.32-21.29L31.32-21.29L31.32-21.29Q31.32-18.54 30.78-16.16L30.78-16.16L30.78-16.16Q30.24-13.77 28.96-11.99L28.96-11.99L28.96-11.99Q27.68-10.21 25.63-9.18L25.63-9.18L25.63-9.18Q23.58-8.14 20.52-8.14ZM15.97-25.11L15.97-25.11L13.50-25.11L13.50-16.79L15.97-16.79L15.97-16.79Q17.95-16.79 18.83-17.19L18.83-17.19L18.83-17.19Q19.71-17.59 19.71-19.08L19.71-19.08L19.71-22.86L19.71-22.86Q19.71-24.30 18.83-24.70L18.83-24.70L18.83-24.70Q17.95-25.11 15.97-25.11ZM33.48-13.50L33.48-13.50L33.48-13.50Q33.48-20.75 36.85-24.28L36.85-24.28L36.85-24.28Q40.23-27.81 47.79-27.81L47.79-27.81L47.79-27.81Q55.35-27.81 58.72-24.28L58.72-24.28L58.72-24.28Q62.10-20.75 62.10-13.50L62.10-13.50L62.10-13.50Q62.10-6.25 58.72-2.72L58.72-2.72L58.72-2.72Q55.35 0.81 47.79 0.81L47.79 0.81L47.79 0.81Q40.41 0.81 36.95-2.65L36.95-2.65L36.95-2.65Q33.48-6.12 33.48-13.50ZM45.09-17.64L45.09-17.64L45.09-7.06L46.75-7.06L46.75-7.06Q48.73-7.06 49.61-7.47L49.61-7.47L49.61-7.47Q50.49-7.88 50.49-9.36L50.49-9.36L50.49-19.93L48.83-19.93L48.83-19.93Q46.84-19.93 45.97-19.53L45.97-19.53L45.97-19.53Q45.09-19.13 45.09-17.64ZM81.77 0L93.42 0L86.89-14.13L93.15-27L81.50-27L77.58-18.09L77.22-18.09L77.22-35.91L66.42-35.10L66.42 0L77.22 0L77.22-10.71L77.58-10.71L81.77 0ZM107.19-9.18L107.19-9.18L107.19-7.29L107.19-7.29Q108-7.20 108.81-7.15L108.81-7.15L108.81-7.15Q109.62-7.11 110.43-7.11L110.43-7.11L110.43-7.11Q115.47-7.11 120.60-8.73L120.60-8.73L121.86-0.81L121.86-0.81Q115.78 0.81 109.89 0.81L109.89 0.81L109.89 0.81Q102.33 0.81 98.95-2.72L98.95-2.72L98.95-2.72Q95.58-6.25 95.58-13.50L95.58-13.50L95.58-13.50Q95.58-20.75 98.98-24.28L98.98-24.28L98.98-24.28Q102.38-27.81 109.89-27.81L109.89-27.81L109.89-27.81Q113.67-27.81 116.19-27.34L116.19-27.34L116.19-27.34Q118.71-26.86 120.26-25.76L120.26-25.76L120.26-25.76Q121.81-24.66 122.47-22.79L122.47-22.79L122.47-22.79Q123.12-20.93 123.12-18.09L123.12-18.09L123.12-18.09Q123.12-15.75 122.33-14.06L122.33-14.06L122.33-14.06Q121.54-12.38 119.70-11.29L119.70-11.29L119.70-11.29Q117.85-10.21 114.79-9.70L114.79-9.70L114.79-9.70Q111.73-9.18 107.19-9.18ZM107.19-17.64L107.19-17.64L107.19-15.43L109.39-15.43L109.39-15.43Q111.38-15.43 112.25-15.84L112.25-15.84L112.25-15.84Q113.13-16.25 113.13-17.73L113.13-17.73L113.13-19.93L110.92-19.93L110.92-19.93Q108.94-19.93 108.07-19.53L108.07-19.53L108.07-19.53Q107.19-19.13 107.19-17.64ZM149.58-9.67L149.58-9.67L150.39-0.58L150.39-0.58Q146.93 0.81 141.84 0.81L141.84 0.81L141.84 0.81Q137.03 0.81 133.88-0.25L133.88-0.25L133.88-0.25Q130.72-1.30 128.88-3.46L128.88-3.46L128.88-3.46Q127.03-5.63 126.29-8.96L126.29-8.96L126.29-8.96Q125.55-12.29 125.55-16.83L125.55-16.83L125.55-16.83Q125.55-21.24 126.25-24.55L126.25-24.55L126.25-24.55Q126.94-27.86 128.75-30.08L128.75-30.08L128.75-30.08Q130.54-32.31 133.63-33.44L133.63-33.44L133.63-33.44Q136.71-34.56 141.44-34.56L141.44-34.56L141.44-34.56Q142.47-34.56 143.75-34.45L143.75-34.45L143.75-34.45Q145.03-34.34 146.27-34.16L146.27-34.16L146.27-34.16Q147.51-33.98 148.61-33.73L148.61-33.73L148.61-33.73Q149.72-33.48 150.39-33.16L150.39-33.16L148.77-24.88L148.77-24.88Q145.17-25.65 142.34-25.65L142.34-25.65L142.34-25.65Q139.41-25.65 138.28-25.11L138.28-25.11L138.28-25.11Q137.16-24.57 137.16-22.95L137.16-22.95L137.16-8.82L137.16-8.82Q138.19-8.59 139.25-8.48L139.25-8.48L139.25-8.48Q140.31-8.37 141.44-8.37L141.44-8.37L141.44-8.37Q145.94-8.37 149.58-9.67ZM166.95-27.81L166.95-27.81L166.95-27.81Q179.91-27.81 179.91-18.90L179.91-18.90L179.91 0L174.51 0L171.45-3.06L171.45-3.06Q170.64-2.16 169.54-1.44L169.54-1.44L169.54-1.44Q168.44-0.72 167.18-0.22L167.18-0.22L167.18-0.22Q165.91 0.27 164.61 0.54L164.61 0.54L164.61 0.54Q163.31 0.81 162.09 0.81L162.09 0.81L162.09 0.81Q159.79 0.81 157.97 0.34L157.97 0.34L157.97 0.34Q156.15-0.14 154.89-1.17L154.89-1.17L154.89-1.17Q153.63-2.21 152.96-3.92L152.96-3.92L152.96-3.92Q152.28-5.63 152.28-8.10L152.28-8.10L152.28-8.10Q152.28-17.82 166.95-17.82L166.95-17.82L169.11-17.82L169.11-19.75L169.11-19.75Q168.25-19.80 167.56-19.84L167.56-19.84L167.56-19.84Q166.86-19.89 166.28-19.89L166.28-19.89L166.28-19.89Q160.20-19.89 155.79-18.40L155.79-18.40L154.48-26.14L154.48-26.14Q159.88-27.81 166.95-27.81ZM163.17-9.27L163.17-9.27L163.17-7.06L165.42-7.06L165.42-7.06Q167.76-7.06 168.48-7.60L168.48-7.60L168.48-7.60Q169.11-8.19 169.11-9L169.11-9L169.11-11.56L166.91-11.56L166.91-11.56Q164.97-11.56 164.07-11.16L164.07-11.16L164.07-11.16Q163.17-10.75 163.17-9.27ZM195.57 0L184.77 0L184.77-27L190.17-27L193.14-23.98L193.14-23.98Q196.38-26.95 201.15-27.81L201.15-27.81L201.78-17.59L201.78-17.59Q201.15-17.59 200.25-17.41L200.25-17.41L200.25-17.41Q199.35-17.23 198.43-16.96L198.43-16.96L198.43-16.96Q197.50-16.70 196.74-16.31L196.74-16.31L196.74-16.31Q195.97-15.93 195.57-15.43L195.57-15.43L195.57 0ZM220.95-35.10L231.75-35.91L231.75 0L226.35 0L224.01-2.25L224.01-2.25Q221.72 0.81 215.55 0.81L215.55 0.81L215.55 0.81Q212.31 0.81 210.10-0.36L210.10-0.36L210.10-0.36Q207.90-1.53 206.53-3.49L206.53-3.49L206.53-3.49Q205.16-5.44 204.55-8.05L204.55-8.05L204.55-8.05Q203.94-10.66 203.94-13.50L203.94-13.50L203.94-13.50Q203.94-16.20 204.48-18.65L204.48-18.65L204.48-18.65Q205.02-21.11 206.28-22.95L206.28-22.95L206.28-22.95Q207.54-24.79 209.61-25.90L209.61-25.90L209.61-25.90Q211.68-27 214.74-27L214.74-27L220.95-27L220.95-35.10ZM215.55-17.64L215.55-17.64L215.55-7.06L217.22-7.06L217.22-7.06Q219.06-7.06 219.94-7.40L219.94-7.40L219.94-7.40Q220.81-7.74 220.95-9L220.95-9L220.95-19.93L219.28-19.93L219.28-19.93Q217.31-19.93 216.43-19.53L216.43-19.53L216.43-19.53Q215.55-19.13 215.55-17.64ZM249.30-0.58L249.30-0.58L250.83-9.49L250.83-9.49Q255.78-8.28 259.78-8.28L259.78-8.28L259.78-8.28Q261.81-8.28 263.36-8.35L263.36-8.35L263.36-8.35Q264.91-8.41 266.13-8.59L266.13-8.59L266.13-11.29L261.27-11.70L261.27-11.70Q257.99-12.01 255.78-12.78L255.78-12.78L255.78-12.78Q253.57-13.54 252.25-14.87L252.25-14.87L252.25-14.87Q250.92-16.20 250.36-18.07L250.36-18.07L250.36-18.07Q249.79-19.93 249.79-22.45L249.79-22.45L249.79-22.45Q249.79-25.92 250.51-28.24L250.51-28.24L250.51-28.24Q251.23-30.55 252.81-31.97L252.81-31.97L252.81-31.97Q254.38-33.39 256.88-33.98L256.88-33.98L256.88-33.98Q259.38-34.56 262.98-34.56L262.98-34.56L262.98-34.56Q270.13-34.56 275.94-33.21L275.94-33.21L274.59-24.57L274.59-24.57Q269.55-25.38 266.53-25.38L266.53-25.38L266.53-25.38Q263.52-25.38 261.40-25.11L261.40-25.11L261.40-22.45L265.27-22.09L265.27-22.09Q268.83-21.73 271.21-20.90L271.21-20.90L271.21-20.90Q273.60-20.07 275.06-18.72L275.06-18.72L275.06-18.72Q276.52-17.37 277.13-15.52L277.13-15.52L277.13-15.52Q277.74-13.68 277.74-11.29L277.74-11.29L277.74-11.29Q277.74-7.88 276.84-5.54L276.84-5.54L276.84-5.54Q275.94-3.19 274.68-1.98L274.68-1.98L274.68-1.98Q273.64-0.99 272.12-0.43L272.12-0.43L272.12-0.43Q270.58 0.14 268.88 0.40L268.88 0.40L268.88 0.40Q267.16 0.67 265.43 0.74L265.43 0.74L265.43 0.74Q263.70 0.81 262.31 0.81L262.31 0.81L262.31 0.81Q258.79 0.81 255.55 0.45L255.55 0.45L255.55 0.45Q252.31 0.09 249.30-0.58ZM301.59-8.10L301.59-8.10L302.26-0.32L302.26-0.32Q299.47 0.81 295.02 0.81L295.02 0.81L295.02 0.81Q287.46 0.81 284.08-2.72L284.08-2.72L284.08-2.72Q280.71-6.25 280.71-13.50L280.71-13.50L280.71-13.50Q280.71-20.75 284.08-24.28L284.08-24.28L284.08-24.28Q287.46-27.81 295.02-27.81L295.02-27.81L295.02-27.81Q299.83-27.81 302.26-26.68L302.26-26.68L300.96-19.35L300.96-19.35Q299.52-19.62 298.39-19.78L298.39-19.78L298.39-19.78Q297.27-19.93 296.41-19.93L296.41-19.93L296.41-19.93Q292.32-19.93 292.32-17.05L292.32-17.05L292.32-7.38L292.32-7.38Q293.08-7.25 294.10-7.15L294.10-7.15L294.10-7.15Q295.11-7.06 296.37-7.06L296.37-7.06L296.37-7.06Q298.89-7.06 301.59-8.10ZM317.38 0L306.58 0L306.58-27L311.99-27L314.95-23.98L314.95-23.98Q318.19-26.95 322.96-27.81L322.96-27.81L323.59-17.59L323.59-17.59Q322.96-17.59 322.06-17.41L322.06-17.41L322.06-17.41Q321.16-17.23 320.24-16.96L320.24-16.96L320.24-16.96Q319.32-16.70 318.56-16.31L318.56-16.31L318.56-16.31Q317.79-15.93 317.38-15.43L317.38-15.43L317.38 0ZM339.62-27.81L339.62-27.81L339.62-27.81Q352.57-27.81 352.57-18.90L352.57-18.90L352.57 0L347.18 0L344.12-3.06L344.12-3.06Q343.31-2.16 342.20-1.44L342.20-1.44L342.20-1.44Q341.10-0.72 339.84-0.22L339.84-0.22L339.84-0.22Q338.58 0.27 337.27 0.54L337.27 0.54L337.27 0.54Q335.97 0.81 334.75 0.81L334.75 0.81L334.75 0.81Q332.46 0.81 330.64 0.34L330.64 0.34L330.64 0.34Q328.81-0.14 327.56-1.17L327.56-1.17L327.56-1.17Q326.30-2.21 325.62-3.92L325.62-3.92L325.62-3.92Q324.94-5.63 324.94-8.10L324.94-8.10L324.94-8.10Q324.94-17.82 339.62-17.82L339.62-17.82L341.77-17.82L341.77-19.75L341.77-19.75Q340.92-19.80 340.22-19.84L340.22-19.84L340.22-19.84Q339.52-19.89 338.94-19.89L338.94-19.89L338.94-19.89Q332.87-19.89 328.45-18.40L328.45-18.40L327.15-26.14L327.15-26.14Q332.55-27.81 339.62-27.81ZM335.83-9.27L335.83-9.27L335.83-7.06L338.08-7.06L338.08-7.06Q340.43-7.06 341.14-7.60L341.14-7.60L341.14-7.60Q341.77-8.19 341.77-9L341.77-9L341.77-11.56L339.57-11.56L339.57-11.56Q337.63-11.56 336.74-11.16L336.74-11.16L336.74-11.16Q335.83-10.75 335.83-9.27ZM383.36 0L372.56 0L372.56-18.90L371.79-18.90L371.79-18.90Q371.07-18.90 370.42-18.86L370.42-18.86L370.42-18.86Q369.76-18.81 369.27-18.56L369.27-18.56L369.27-18.56Q368.78-18.31 368.50-17.82L368.50-17.82L368.50-17.82Q368.24-17.32 368.24-16.43L368.24-16.43L368.24 0L357.44 0L357.44-27L362.84-27L365.26-24.52L365.26-24.52Q368.55-27.81 373.91-27.81L373.91-27.81L373.91-27.81Q379.22-27.81 381.65-25.61L381.65-25.61L381.65-25.61Q385.02-27.81 389.30-27.81L389.30-27.81L389.30-27.81Q393.66-27.81 396.07-26.17L396.07-26.17L396.07-26.17Q398.48-24.52 398.48-21.60L398.48-21.60L398.48 0L387.68 0L387.68-18.90L386.91-18.90L386.91-18.90Q386.28-18.90 385.65-18.86L385.65-18.86L385.65-18.86Q385.02-18.81 384.55-18.61L384.55-18.61L384.55-18.61Q384.07-18.40 383.74-17.95L383.74-17.95L383.74-17.95Q383.40-17.50 383.36-16.74L383.36-16.74L383.36 0ZM403.56-1.35L403.56-1.35L403.56-35.10L414.36-35.91L414.36-26.95L414.36-26.95Q416.34-27.81 419.76-27.81L419.76-27.81L419.76-27.81Q423-27.81 425.21-26.64L425.21-26.64L425.21-26.64Q427.41-25.47 428.78-23.51L428.78-23.51L428.78-23.51Q430.16-21.55 430.76-18.95L430.76-18.95L430.76-18.95Q431.37-16.34 431.37-13.50L431.37-13.50L431.37-13.50Q431.37-5.89 427.86-2.54L427.86-2.54L427.86-2.54Q424.35 0.81 417.24 0.81L417.24 0.81L417.24 0.81Q410.13 0.81 403.56-1.35ZM414.36-17.91L414.36-17.91L414.36-7.06L416.03-7.06L416.03-7.06Q418.00-7.06 418.88-7.47L418.88-7.47L418.88-7.47Q419.76-7.88 419.76-9.36L419.76-9.36L419.76-19.93L418.10-19.93L418.10-19.93Q416.93-19.93 416.21-19.84L416.21-19.84L416.21-19.84Q415.49-19.75 414.94-19.26L414.94-19.26L414.94-19.26Q414.41-18.81 414.36-17.91ZM435.69-5.08L435.69-35.10L446.49-35.91L446.49-7.74L446.49-7.74Q447.35-7.56 448.02-7.47L448.02-7.47L448.02-7.47Q448.69-7.38 449.14-7.33L449.14-7.33L448.65 0.58L448.65 0.58Q441.76 0.58 439.51-0.22L439.51-0.22L439.51-0.22Q437.63-0.90 436.66-1.98L436.66-1.98L436.66-1.98Q435.69-3.06 435.69-5.08L435.69-5.08ZM462.92-9.18L462.92-9.18L462.92-7.29L462.92-7.29Q463.73-7.20 464.54-7.15L464.54-7.15L464.54-7.15Q465.35-7.11 466.15-7.11L466.15-7.11L466.15-7.11Q471.19-7.11 476.32-8.73L476.32-8.73L477.58-0.81L477.58-0.81Q471.51 0.81 465.62 0.81L465.62 0.81L465.62 0.81Q458.06 0.81 454.68-2.72L454.68-2.72L454.68-2.72Q451.31-6.25 451.31-13.50L451.31-13.50L451.31-13.50Q451.31-20.75 454.70-24.28L454.70-24.28L454.70-24.28Q458.10-27.81 465.62-27.81L465.62-27.81L465.62-27.81Q469.39-27.81 471.92-27.34L471.92-27.34L471.92-27.34Q474.44-26.86 475.99-25.76L475.99-25.76L475.99-25.76Q477.54-24.66 478.19-22.79L478.19-22.79L478.19-22.79Q478.85-20.93 478.85-18.09L478.85-18.09L478.85-18.09Q478.85-15.75 478.06-14.06L478.06-14.06L478.06-14.06Q477.27-12.38 475.43-11.29L475.43-11.29L475.43-11.29Q473.58-10.21 470.52-9.70L470.52-9.70L470.52-9.70Q467.46-9.18 462.92-9.18ZM462.92-17.64L462.92-17.64L462.92-15.43L465.12-15.43L465.12-15.43Q467.10-15.43 467.98-15.84L467.98-15.84L467.98-15.84Q468.86-16.25 468.86-17.73L468.86-17.73L468.86-19.93L466.65-19.93L466.65-19.93Q464.67-19.93 463.79-19.53L463.79-19.53L463.79-19.53Q462.92-19.13 462.92-17.64ZM493.69 0L482.89 0L482.89-27L488.30-27L491.26-23.98L491.26-23.98Q494.50-26.95 499.27-27.81L499.27-27.81L499.90-17.59L499.90-17.59Q499.27-17.59 498.38-17.41L498.38-17.41L498.38-17.41Q497.48-17.23 496.55-16.96L496.55-16.96L496.55-16.96Q495.63-16.70 494.87-16.31L494.87-16.31L494.87-16.31Q494.10-15.93 493.69-15.43L493.69-15.43L493.69 0Z" fill="url(#editing-sticker-gradient)" stroke="#000000" stroke-width="3"></path></g></g><style>text {
  font-size: 64px;
  font-family: Arial Black;
  dominant-baseline: central;
  text-anchor: middle;
}</style></svg>